<svg width="95" height="95" viewBox="0 0 95 95" fill="none" xmlns="http://www.w3.org/2000/svg">
<mask id="path-1-outside-1_3_89" maskUnits="userSpaceOnUse" x="15" y="23" width="63" height="53" fill="black">
<rect fill="white" x="15" y="23" width="63" height="53"/>
<path d="M55.5909 56.6818C57.2576 56.5303 58.553 55.8561 59.4773 54.6591C60.4167 53.4773 60.8864 51.7879 60.8864 49.5909C60.8864 48.1364 60.697 46.9242 60.3182 45.9545C59.9394 44.9848 59.4167 44.2576 58.75 43.7727C58.0985 43.2879 57.3485 43.0379 56.5 43.0227C55.803 42.9924 55.1894 43.1288 54.6591 43.4318C54.1288 43.75 53.6591 44.2045 53.25 44.7955C52.8561 45.4015 52.5076 46.1288 52.2045 46.9773C51.9015 47.8258 51.6364 48.7803 51.4091 49.8409L50.5 53.8409C50 56.1439 49.3333 58.1742 48.5 59.9318C47.6667 61.7045 46.6742 63.1894 45.5227 64.3864C44.3712 65.5985 43.0455 66.5152 41.5455 67.1364C40.0455 67.7576 38.3636 68.0758 36.5 68.0909C33.5606 68.0758 31.0379 67.3333 28.9318 65.8636C26.8258 64.3939 25.2121 62.2803 24.0909 59.5227C22.9697 56.7803 22.4091 53.4697 22.4091 49.5909C22.4091 45.697 22.9924 42.303 24.1591 39.4091C25.3258 36.5151 27.0985 34.2651 29.4773 32.6591C31.8561 31.053 34.8636 30.2273 38.5 30.1818L38.5 40.9545C37 41.0455 35.75 41.447 34.75 42.1591C33.75 42.8712 32.9924 43.8485 32.4773 45.0909C31.9621 46.3485 31.7045 47.803 31.7045 49.4545C31.7045 50.9697 31.9091 52.2576 32.3182 53.3182C32.7273 54.3939 33.2955 55.2197 34.0227 55.7955C34.75 56.3712 35.5833 56.6667 36.5227 56.6818C37.4015 56.6667 38.1515 56.3939 38.7727 55.8636C39.4091 55.3333 39.9545 54.5152 40.4091 53.4091C40.8788 52.3182 41.3106 50.9242 41.7045 49.2273L42.8409 44.3636C43.7652 40.3333 45.2576 37.1591 47.3182 34.8409C49.3939 32.5227 52.197 31.3712 55.7273 31.3864C58.6061 31.3712 61.1288 32.1439 63.2955 33.7045C65.4621 35.2652 67.1515 37.4242 68.3636 40.1818C69.5758 42.9394 70.1818 46.0833 70.1818 49.6136C70.1818 53.2197 69.5682 56.3485 68.3409 59C67.1288 61.6667 65.4242 63.7348 63.2273 65.2045C61.0303 66.6742 58.4848 67.4242 55.5909 67.4545L55.5909 56.6818Z"/>
</mask>
<path d="M55.5909 56.6818C57.2576 56.5303 58.553 55.8561 59.4773 54.6591C60.4167 53.4773 60.8864 51.7879 60.8864 49.5909C60.8864 48.1364 60.697 46.9242 60.3182 45.9545C59.9394 44.9848 59.4167 44.2576 58.75 43.7727C58.0985 43.2879 57.3485 43.0379 56.5 43.0227C55.803 42.9924 55.1894 43.1288 54.6591 43.4318C54.1288 43.75 53.6591 44.2045 53.25 44.7955C52.8561 45.4015 52.5076 46.1288 52.2045 46.9773C51.9015 47.8258 51.6364 48.7803 51.4091 49.8409L50.5 53.8409C50 56.1439 49.3333 58.1742 48.5 59.9318C47.6667 61.7045 46.6742 63.1894 45.5227 64.3864C44.3712 65.5985 43.0455 66.5152 41.5455 67.1364C40.0455 67.7576 38.3636 68.0758 36.5 68.0909C33.5606 68.0758 31.0379 67.3333 28.9318 65.8636C26.8258 64.3939 25.2121 62.2803 24.0909 59.5227C22.9697 56.7803 22.4091 53.4697 22.4091 49.5909C22.4091 45.697 22.9924 42.303 24.1591 39.4091C25.3258 36.5151 27.0985 34.2651 29.4773 32.6591C31.8561 31.053 34.8636 30.2273 38.5 30.1818L38.5 40.9545C37 41.0455 35.75 41.447 34.75 42.1591C33.75 42.8712 32.9924 43.8485 32.4773 45.0909C31.9621 46.3485 31.7045 47.803 31.7045 49.4545C31.7045 50.9697 31.9091 52.2576 32.3182 53.3182C32.7273 54.3939 33.2955 55.2197 34.0227 55.7955C34.75 56.3712 35.5833 56.6667 36.5227 56.6818C37.4015 56.6667 38.1515 56.3939 38.7727 55.8636C39.4091 55.3333 39.9545 54.5152 40.4091 53.4091C40.8788 52.3182 41.3106 50.9242 41.7045 49.2273L42.8409 44.3636C43.7652 40.3333 45.2576 37.1591 47.3182 34.8409C49.3939 32.5227 52.197 31.3712 55.7273 31.3864C58.6061 31.3712 61.1288 32.1439 63.2955 33.7045C65.4621 35.2652 67.1515 37.4242 68.3636 40.1818C69.5758 42.9394 70.1818 46.0833 70.1818 49.6136C70.1818 53.2197 69.5682 56.3485 68.3409 59C67.1288 61.6667 65.4242 63.7348 63.2273 65.2045C61.0303 66.6742 58.4848 67.4242 55.5909 67.4545L55.5909 56.6818Z" fill="url(#paint0_linear_3_89)"/>
<path d="M55.5909 56.6818L54.9572 49.7106L48.5909 56.6818L55.5909 56.6818ZM59.4773 54.6591L53.9975 50.3034L53.9367 50.381L59.4773 54.6591ZM60.3182 45.9545L66.8384 43.4076L66.8384 43.4076L60.3182 45.9545ZM58.75 43.7727L54.5709 49.3884L54.6328 49.4339L58.75 43.7727ZM56.5 43.0227L56.1959 50.0161L56.375 50.0216L56.5 43.0227ZM54.6591 43.4318L51.1861 37.3541L51.0576 37.4294L54.6591 43.4318ZM53.25 44.7955L47.4947 40.811L47.3809 40.9805L53.25 44.7955ZM52.2045 46.9773L58.7967 49.3316L58.7967 49.3316L52.2045 46.9773ZM51.4091 49.8409L58.235 51.3923L58.2537 51.3076L51.4091 49.8409ZM50.5 53.8409L43.6741 52.2896L43.6594 52.3558L50.5 53.8409ZM48.5 59.9318L42.1749 56.9329L42.165 56.9538L48.5 59.9318ZM45.5227 64.3864L40.4781 59.5333L40.4477 59.5651L45.5227 64.3864ZM41.5455 67.1364L38.8671 60.669L38.8671 60.669L41.5455 67.1364ZM36.5 68.0909L36.4639 75.0908L36.5569 75.0907L36.5 68.0909ZM28.9318 65.8636L32.9377 60.1232L32.9377 60.1232L28.9318 65.8636ZM24.0909 59.5227L30.5754 56.8862L30.5703 56.8737L24.0909 59.5227ZM24.1591 39.4091L30.6514 42.0264L30.6514 42.0264L24.1591 39.4091ZM38.5 30.1818L45.5 30.1818L38.4125 23.1824L38.5 30.1818ZM38.5 40.9545L38.9235 47.9417L45.5 40.9545L38.5 40.9545ZM34.75 42.1591L30.6895 36.4571L30.6895 36.4571L34.75 42.1591ZM32.4773 45.0909L26.0111 42.4098L25.9997 42.4374L32.4773 45.0909ZM32.3182 53.3182L38.8611 50.83L38.8492 50.7991L32.3182 53.3182ZM34.0227 55.7955L38.3676 50.3071L38.3676 50.3071L34.0227 55.7955ZM36.5227 56.6818L36.4098 63.6809L36.6434 63.6808L36.5227 56.6818ZM38.7727 55.8636L34.2914 50.4861L34.2279 50.5397L38.7727 55.8636ZM40.4091 53.4091L33.9797 50.6409L33.9345 50.7483L40.4091 53.4091ZM41.7045 49.2273L34.8881 47.6346L34.8859 47.6444L41.7045 49.2273ZM42.8409 44.3636L49.6573 45.9563L49.6638 45.9283L42.8409 44.3636ZM47.3182 34.8409L42.1033 30.1714L42.0863 30.1904L47.3182 34.8409ZM55.7273 31.3864L55.6972 38.3863L55.7641 38.3863L55.7273 31.3864ZM63.2955 33.7045L67.3866 28.0246L67.3866 28.0246L63.2955 33.7045ZM68.3636 40.1818L61.9554 42.9986L61.9554 42.9986L68.3636 40.1818ZM68.3409 59L61.9884 56.0597L61.9683 56.1034L68.3409 59ZM63.2273 65.2045L67.1194 71.0227L67.1194 71.0227L63.2273 65.2045ZM55.5909 67.4545L48.5909 67.4545L55.6642 74.4542L55.5909 67.4545ZM56.2247 63.6531C59.6008 63.3462 62.7698 61.8486 65.0178 58.9372L53.9367 50.381C54.0724 50.2052 54.2957 50.0015 54.5807 49.8532C54.8504 49.7128 55.0145 49.7054 54.9572 49.7106L56.2247 63.6531ZM64.957 59.0148C67.2413 56.1411 67.8864 52.6723 67.8864 49.5909L53.8864 49.5909C53.8864 50.208 53.8185 50.5277 53.7899 50.6306C53.766 50.7164 53.7974 50.5551 53.9975 50.3034L64.957 59.0148ZM67.8864 49.5909C67.8864 47.5858 67.6331 45.4421 66.8384 43.4076L53.798 48.5015C53.7733 48.4384 53.7984 48.4808 53.8282 48.6715C53.8579 48.8617 53.8864 49.1611 53.8864 49.5909L67.8864 49.5909ZM66.8384 43.4076C66.1 41.5173 64.8679 39.5666 62.8672 38.1116L54.6328 49.4339C53.9654 48.9485 53.7788 48.4524 53.798 48.5015L66.8384 43.4076ZM62.9291 38.1571C61.049 36.758 58.8662 36.0639 56.625 36.0238L56.375 50.0216C56.141 50.0174 55.832 49.9779 55.4853 49.8624C55.1356 49.7458 54.8252 49.5776 54.5709 49.3884L62.9291 38.1571ZM56.8041 36.0293C54.9792 35.95 53.0202 36.3061 51.1861 37.3541L58.1321 49.5095C57.3586 49.9515 56.6269 50.0349 56.1959 50.0161L56.8041 36.0293ZM51.0576 37.4294C49.5467 38.3359 48.3789 39.5337 47.4947 40.811L59.0053 48.7799C58.9392 48.8754 58.7109 49.1641 58.2606 49.4343L51.0576 37.4294ZM47.3809 40.9805C46.6276 42.1394 46.0559 43.3811 45.6124 44.6229L58.7967 49.3316C58.9593 48.8765 59.0845 48.6636 59.1191 48.6104L47.3809 40.9805ZM45.6124 44.6229C45.1874 45.8128 44.8437 47.071 44.5645 48.3742L58.2537 51.3076C58.429 50.4896 58.6156 49.8388 58.7967 49.3316L45.6124 44.6229ZM44.5832 48.2896L43.6741 52.2896L57.3259 55.3923L58.235 51.3923L44.5832 48.2896ZM43.6594 52.3558C43.2499 54.242 42.737 55.7475 42.1749 56.9329L54.8251 62.9308C55.9297 60.601 56.7501 58.0459 57.3406 55.326L43.6594 52.3558ZM42.165 56.9538C41.5998 58.1562 41.0148 58.9754 40.4781 59.5333L50.5673 69.2394C52.3336 67.4034 53.7335 65.2529 54.835 62.9098L42.165 56.9538ZM40.4477 59.5651C39.9505 60.0886 39.4345 60.434 38.8671 60.669L44.2238 73.6037C46.6564 72.5963 48.792 71.1084 50.5977 69.2076L40.4477 59.5651ZM38.8671 60.669C38.3122 60.8988 37.5386 61.0822 36.4431 61.0911L36.5569 75.0907C39.1886 75.0693 41.7787 74.6163 44.2238 73.6037L38.8671 60.669ZM36.5361 61.091C34.8049 61.0821 33.7163 60.6665 32.9377 60.1232L24.9259 71.6041C28.3595 74.0002 32.3163 75.0694 36.4639 75.0908L36.5361 61.091ZM32.9377 60.1232C32.1078 59.5441 31.2703 58.5953 30.5754 56.8862L17.6064 62.1593C19.1539 65.9653 21.5437 69.2438 24.9259 71.6041L32.9377 60.1232ZM30.5703 56.8737C29.8812 55.1882 29.4091 52.8282 29.4091 49.5909L15.4091 49.5909C15.4091 54.1112 16.0582 58.3724 17.6115 62.1718L30.5703 56.8737ZM29.4091 49.5909C29.4091 46.3793 29.8919 43.9103 30.6514 42.0264L17.6668 36.7918C16.0929 40.6958 15.4091 45.0147 15.4091 49.5909L29.4091 49.5909ZM30.6514 42.0264C31.3438 40.3089 32.2732 39.2174 33.3942 38.4606L25.5603 26.8576C21.9237 29.3129 19.3077 32.7214 17.6668 36.7918L30.6514 42.0264ZM33.3942 38.4606C34.3732 37.7996 35.9539 37.2142 38.5875 37.1813L38.4125 23.1824C33.7734 23.2404 29.3389 24.3064 25.5603 26.8576L33.3942 38.4606ZM31.5 30.1818L31.5 40.9545L45.5 40.9545L45.5 30.1818L31.5 30.1818ZM38.0765 33.9674C35.5616 34.1198 32.9744 34.83 30.6895 36.4571L38.8105 47.8611C38.751 47.9034 38.6964 47.9349 38.652 47.9569C38.6081 47.9786 38.5814 47.9875 38.5783 47.9885C38.5731 47.9901 38.6748 47.9568 38.9235 47.9417L38.0765 33.9674ZM30.6895 36.4571C28.5191 38.0027 26.9792 40.0748 26.0111 42.4098L38.9435 47.772C38.9834 47.6758 38.9986 47.6705 38.9642 47.7148C38.9482 47.7355 38.9254 47.7616 38.8963 47.7896C38.8672 47.8176 38.8376 47.8417 38.8105 47.8611L30.6895 36.4571ZM25.9997 42.4374C25.074 44.6973 24.7045 47.0838 24.7045 49.4545L38.7045 49.4545C38.7045 48.5223 38.8503 47.9996 38.9549 47.7444L25.9997 42.4374ZM24.7045 49.4545C24.7045 51.561 24.9838 53.7546 25.7872 55.8373L38.8492 50.7991C38.8343 50.7606 38.7045 50.3784 38.7045 49.4545L24.7045 49.4545ZM25.7753 55.8063C26.5258 57.7798 27.7482 59.7562 29.6778 61.2838L38.3676 50.3071C38.8427 50.6832 38.9287 51.008 38.8611 50.83L25.7753 55.8063ZM29.6778 61.2838C31.6281 62.8277 33.9535 63.6413 36.4098 63.6809L36.6356 49.6827C36.8772 49.6866 37.19 49.7299 37.5323 49.8513C37.8757 49.973 38.158 50.1412 38.3676 50.3071L29.6778 61.2838ZM36.6434 63.6808C39.0138 63.6399 41.3633 62.8559 43.3176 61.1876L34.2279 50.5397C34.5388 50.2743 34.9217 50.0439 35.3521 49.8874C35.7758 49.7333 36.1444 49.6873 36.4021 49.6829L36.6434 63.6808ZM43.254 61.2412C45.0682 59.7294 46.1751 57.7941 46.8837 56.0699L33.9345 50.7483C33.8468 50.9616 33.8029 51.0171 33.8347 50.9694C33.8678 50.9198 34.0063 50.7237 34.2914 50.4861L43.254 61.2412ZM46.8385 56.1773C47.5298 54.5718 48.0743 52.7439 48.5232 50.8102L34.8859 47.6444C34.5469 49.1046 34.2278 50.0646 33.9797 50.6409L46.8385 56.1773ZM48.521 50.8199L49.6573 45.9563L36.0245 42.771L34.8881 47.6347L48.521 50.8199ZM49.6638 45.9283C50.4095 42.6764 51.4876 40.6867 52.55 39.4915L42.0863 30.1904C39.0275 33.6315 37.1208 37.9903 36.018 42.799L49.6638 45.9283ZM52.5331 39.5105C53.0868 38.8921 53.8691 38.3785 55.6972 38.3863L55.7573 24.3864C50.5249 24.364 45.7011 26.1533 42.1033 30.1714L52.5331 39.5105ZM55.7641 38.3863C57.2843 38.3783 58.335 38.7584 59.2043 39.3845L67.3866 28.0246C63.9226 25.5295 59.9278 24.3642 55.6904 24.3865L55.7641 38.3863ZM59.2043 39.3845C60.2319 40.1247 61.1804 41.2355 61.9554 42.9986L74.7719 37.365C73.1227 33.613 70.6924 30.4056 67.3866 28.0246L59.2043 39.3845ZM61.9554 42.9986C62.716 44.7289 63.1818 46.8882 63.1818 49.6136L77.1818 49.6136C77.1818 45.2785 76.4356 41.1499 74.7719 37.365L61.9554 42.9986ZM63.1818 49.6136C63.1818 52.4363 62.7013 54.5194 61.9884 56.0597L74.6934 61.9403C76.435 58.1776 77.1818 54.0031 77.1818 49.6136L63.1818 49.6136ZM61.9683 56.1034C61.235 57.7168 60.3348 58.7176 59.3351 59.3864L67.1194 71.0227C70.5137 68.7521 73.0226 65.6166 74.7135 61.8966L61.9683 56.1034ZM59.3351 59.3864C58.376 60.028 57.1852 60.4375 55.5176 60.4549L55.6642 74.4542C59.7845 74.411 63.6846 73.3205 67.1194 71.0227L59.3351 59.3864ZM62.5909 67.4545L62.5909 56.6818L48.5909 56.6818L48.5909 67.4545L62.5909 67.4545Z" fill="black" mask="url(#path-1-outside-1_3_89)"/>
<path d="M55.5909 56.6818L54.9572 49.7106L48.5909 56.6818L55.5909 56.6818ZM59.4773 54.6591L53.9975 50.3034L53.9367 50.381L59.4773 54.6591ZM60.3182 45.9545L66.8384 43.4076L66.8384 43.4076L60.3182 45.9545ZM58.75 43.7727L54.5709 49.3884L54.6328 49.4339L58.75 43.7727ZM56.5 43.0227L56.1959 50.0161L56.375 50.0216L56.5 43.0227ZM54.6591 43.4318L51.1861 37.3541L51.0576 37.4294L54.6591 43.4318ZM53.25 44.7955L47.4947 40.811L47.3809 40.9805L53.25 44.7955ZM52.2045 46.9773L58.7967 49.3316L58.7967 49.3316L52.2045 46.9773ZM51.4091 49.8409L58.235 51.3923L58.2537 51.3076L51.4091 49.8409ZM50.5 53.8409L43.6741 52.2896L43.6594 52.3558L50.5 53.8409ZM48.5 59.9318L42.1749 56.9329L42.165 56.9538L48.5 59.9318ZM45.5227 64.3864L40.4781 59.5333L40.4477 59.5651L45.5227 64.3864ZM41.5455 67.1364L38.8671 60.669L38.8671 60.669L41.5455 67.1364ZM36.5 68.0909L36.4639 75.0908L36.5569 75.0907L36.5 68.0909ZM28.9318 65.8636L32.9377 60.1232L32.9377 60.1232L28.9318 65.8636ZM24.0909 59.5227L30.5754 56.8862L30.5703 56.8737L24.0909 59.5227ZM24.1591 39.4091L30.6514 42.0264L30.6514 42.0264L24.1591 39.4091ZM38.5 30.1818L45.5 30.1818L38.4125 23.1824L38.5 30.1818ZM38.5 40.9545L38.9235 47.9417L45.5 40.9545L38.5 40.9545ZM34.75 42.1591L30.6895 36.4571L30.6895 36.4571L34.75 42.1591ZM32.4773 45.0909L26.0111 42.4098L25.9997 42.4374L32.4773 45.0909ZM32.3182 53.3182L38.8611 50.83L38.8492 50.7991L32.3182 53.3182ZM34.0227 55.7955L38.3676 50.3071L38.3676 50.3071L34.0227 55.7955ZM36.5227 56.6818L36.4098 63.6809L36.6434 63.6808L36.5227 56.6818ZM38.7727 55.8636L34.2914 50.4861L34.2279 50.5397L38.7727 55.8636ZM40.4091 53.4091L33.9797 50.6409L33.9345 50.7483L40.4091 53.4091ZM41.7045 49.2273L34.8881 47.6346L34.8859 47.6444L41.7045 49.2273ZM42.8409 44.3636L49.6573 45.9563L49.6638 45.9283L42.8409 44.3636ZM47.3182 34.8409L42.1033 30.1714L42.0863 30.1904L47.3182 34.8409ZM55.7273 31.3864L55.6972 38.3863L55.7641 38.3863L55.7273 31.3864ZM63.2955 33.7045L67.3866 28.0246L67.3866 28.0246L63.2955 33.7045ZM68.3636 40.1818L61.9554 42.9986L61.9554 42.9986L68.3636 40.1818ZM68.3409 59L61.9884 56.0597L61.9683 56.1034L68.3409 59ZM63.2273 65.2045L67.1194 71.0227L67.1194 71.0227L63.2273 65.2045ZM55.5909 67.4545L48.5909 67.4545L55.6642 74.4542L55.5909 67.4545ZM56.2247 63.6531C59.6008 63.3462 62.7698 61.8486 65.0178 58.9372L53.9367 50.381C54.0724 50.2052 54.2957 50.0015 54.5807 49.8532C54.8504 49.7128 55.0145 49.7054 54.9572 49.7106L56.2247 63.6531ZM64.957 59.0148C67.2413 56.1411 67.8864 52.6723 67.8864 49.5909L53.8864 49.5909C53.8864 50.208 53.8185 50.5277 53.7899 50.6306C53.766 50.7164 53.7974 50.5551 53.9975 50.3034L64.957 59.0148ZM67.8864 49.5909C67.8864 47.5858 67.6331 45.4421 66.8384 43.4076L53.798 48.5015C53.7733 48.4384 53.7984 48.4808 53.8282 48.6715C53.8579 48.8617 53.8864 49.1611 53.8864 49.5909L67.8864 49.5909ZM66.8384 43.4076C66.1 41.5173 64.8679 39.5666 62.8672 38.1116L54.6328 49.4339C53.9654 48.9485 53.7788 48.4524 53.798 48.5015L66.8384 43.4076ZM62.9291 38.1571C61.049 36.758 58.8662 36.0639 56.625 36.0238L56.375 50.0216C56.141 50.0174 55.832 49.9779 55.4853 49.8624C55.1356 49.7458 54.8252 49.5776 54.5709 49.3884L62.9291 38.1571ZM56.8041 36.0293C54.9792 35.95 53.0202 36.3061 51.1861 37.3541L58.1321 49.5095C57.3586 49.9515 56.6269 50.0349 56.1959 50.0161L56.8041 36.0293ZM51.0576 37.4294C49.5467 38.3359 48.3789 39.5337 47.4947 40.811L59.0053 48.7799C58.9392 48.8754 58.7109 49.1641 58.2606 49.4343L51.0576 37.4294ZM47.3809 40.9805C46.6276 42.1394 46.0559 43.3811 45.6124 44.6229L58.7967 49.3316C58.9593 48.8765 59.0845 48.6636 59.1191 48.6104L47.3809 40.9805ZM45.6124 44.6229C45.1874 45.8128 44.8437 47.071 44.5645 48.3742L58.2537 51.3076C58.429 50.4896 58.6156 49.8388 58.7967 49.3316L45.6124 44.6229ZM44.5832 48.2896L43.6741 52.2896L57.3259 55.3923L58.235 51.3923L44.5832 48.2896ZM43.6594 52.3558C43.2499 54.242 42.737 55.7475 42.1749 56.9329L54.8251 62.9308C55.9297 60.601 56.7501 58.0459 57.3406 55.326L43.6594 52.3558ZM42.165 56.9538C41.5998 58.1562 41.0148 58.9754 40.4781 59.5333L50.5673 69.2394C52.3336 67.4034 53.7335 65.2529 54.835 62.9098L42.165 56.9538ZM40.4477 59.5651C39.9505 60.0886 39.4345 60.434 38.8671 60.669L44.2238 73.6037C46.6564 72.5963 48.792 71.1084 50.5977 69.2076L40.4477 59.5651ZM38.8671 60.669C38.3122 60.8988 37.5386 61.0822 36.4431 61.0911L36.5569 75.0907C39.1886 75.0693 41.7787 74.6163 44.2238 73.6037L38.8671 60.669ZM36.5361 61.091C34.8049 61.0821 33.7163 60.6665 32.9377 60.1232L24.9259 71.6041C28.3595 74.0002 32.3163 75.0694 36.4639 75.0908L36.5361 61.091ZM32.9377 60.1232C32.1078 59.5441 31.2703 58.5953 30.5754 56.8862L17.6064 62.1593C19.1539 65.9653 21.5437 69.2438 24.9259 71.6041L32.9377 60.1232ZM30.5703 56.8737C29.8812 55.1882 29.4091 52.8282 29.4091 49.5909L15.4091 49.5909C15.4091 54.1112 16.0582 58.3724 17.6115 62.1718L30.5703 56.8737ZM29.4091 49.5909C29.4091 46.3793 29.8919 43.9103 30.6514 42.0264L17.6668 36.7918C16.0929 40.6958 15.4091 45.0147 15.4091 49.5909L29.4091 49.5909ZM30.6514 42.0264C31.3438 40.3089 32.2732 39.2174 33.3942 38.4606L25.5603 26.8576C21.9237 29.3129 19.3077 32.7214 17.6668 36.7918L30.6514 42.0264ZM33.3942 38.4606C34.3732 37.7996 35.9539 37.2142 38.5875 37.1813L38.4125 23.1824C33.7734 23.2404 29.3389 24.3064 25.5603 26.8576L33.3942 38.4606ZM31.5 30.1818L31.5 40.9545L45.5 40.9545L45.5 30.1818L31.5 30.1818ZM38.0765 33.9674C35.5616 34.1198 32.9744 34.83 30.6895 36.4571L38.8105 47.8611C38.751 47.9034 38.6964 47.9349 38.652 47.9569C38.6081 47.9786 38.5814 47.9875 38.5783 47.9885C38.5731 47.9901 38.6748 47.9568 38.9235 47.9417L38.0765 33.9674ZM30.6895 36.4571C28.5191 38.0027 26.9792 40.0748 26.0111 42.4098L38.9435 47.772C38.9834 47.6758 38.9986 47.6705 38.9642 47.7148C38.9482 47.7355 38.9254 47.7616 38.8963 47.7896C38.8672 47.8176 38.8376 47.8417 38.8105 47.8611L30.6895 36.4571ZM25.9997 42.4374C25.074 44.6973 24.7045 47.0838 24.7045 49.4545L38.7045 49.4545C38.7045 48.5223 38.8503 47.9996 38.9549 47.7444L25.9997 42.4374ZM24.7045 49.4545C24.7045 51.561 24.9838 53.7546 25.7872 55.8373L38.8492 50.7991C38.8343 50.7606 38.7045 50.3784 38.7045 49.4545L24.7045 49.4545ZM25.7753 55.8063C26.5258 57.7798 27.7482 59.7562 29.6778 61.2838L38.3676 50.3071C38.8427 50.6832 38.9287 51.008 38.8611 50.83L25.7753 55.8063ZM29.6778 61.2838C31.6281 62.8277 33.9535 63.6413 36.4098 63.6809L36.6356 49.6827C36.8772 49.6866 37.19 49.7299 37.5323 49.8513C37.8757 49.973 38.158 50.1412 38.3676 50.3071L29.6778 61.2838ZM36.6434 63.6808C39.0138 63.6399 41.3633 62.8559 43.3176 61.1876L34.2279 50.5397C34.5388 50.2743 34.9217 50.0439 35.3521 49.8874C35.7758 49.7333 36.1444 49.6873 36.4021 49.6829L36.6434 63.6808ZM43.254 61.2412C45.0682 59.7294 46.1751 57.7941 46.8837 56.0699L33.9345 50.7483C33.8468 50.9616 33.8029 51.0171 33.8347 50.9694C33.8678 50.9198 34.0063 50.7237 34.2914 50.4861L43.254 61.2412ZM46.8385 56.1773C47.5298 54.5718 48.0743 52.7439 48.5232 50.8102L34.8859 47.6444C34.5469 49.1046 34.2278 50.0646 33.9797 50.6409L46.8385 56.1773ZM48.521 50.8199L49.6573 45.9563L36.0245 42.771L34.8881 47.6347L48.521 50.8199ZM49.6638 45.9283C50.4095 42.6764 51.4876 40.6867 52.55 39.4915L42.0863 30.1904C39.0275 33.6315 37.1208 37.9903 36.018 42.799L49.6638 45.9283ZM52.5331 39.5105C53.0868 38.8921 53.8691 38.3785 55.6972 38.3863L55.7573 24.3864C50.5249 24.364 45.7011 26.1533 42.1033 30.1714L52.5331 39.5105ZM55.7641 38.3863C57.2843 38.3783 58.335 38.7584 59.2043 39.3845L67.3866 28.0246C63.9226 25.5295 59.9278 24.3642 55.6904 24.3865L55.7641 38.3863ZM59.2043 39.3845C60.2319 40.1247 61.1804 41.2355 61.9554 42.9986L74.7719 37.365C73.1227 33.613 70.6924 30.4056 67.3866 28.0246L59.2043 39.3845ZM61.9554 42.9986C62.716 44.7289 63.1818 46.8882 63.1818 49.6136L77.1818 49.6136C77.1818 45.2785 76.4356 41.1499 74.7719 37.365L61.9554 42.9986ZM63.1818 49.6136C63.1818 52.4363 62.7013 54.5194 61.9884 56.0597L74.6934 61.9403C76.435 58.1776 77.1818 54.0031 77.1818 49.6136L63.1818 49.6136ZM61.9683 56.1034C61.235 57.7168 60.3348 58.7176 59.3351 59.3864L67.1194 71.0227C70.5137 68.7521 73.0226 65.6166 74.7135 61.8966L61.9683 56.1034ZM59.3351 59.3864C58.376 60.028 57.1852 60.4375 55.5176 60.4549L55.6642 74.4542C59.7845 74.411 63.6846 73.3205 67.1194 71.0227L59.3351 59.3864ZM62.5909 67.4545L62.5909 56.6818L48.5909 56.6818L48.5909 67.4545L62.5909 67.4545Z" fill="url(#paint1_linear_3_89)" fill-opacity="0.2" mask="url(#path-1-outside-1_3_89)"/>
<defs>
<linearGradient id="paint0_linear_3_89" x1="-6.27301e-06" y1="29.7576" x2="-1.91524e-06" y2="100.939" gradientUnits="userSpaceOnUse">
<stop offset="0.1875" stop-color="#B43434"/>
<stop offset="1" stop-color="#AC7373" stop-opacity="0"/>
</linearGradient>
<linearGradient id="paint1_linear_3_89" x1="3.55835e-07" y1="118.515" x2="4.14171e-07" y2="22.7273" gradientUnits="userSpaceOnUse">
<stop stop-color="#403838"/>
<stop offset="1" stop-opacity="0"/>
</linearGradient>
</defs>
</svg>
